<svg xmlns="http://www.w3.org/2000/svg"  viewBox="0 0 256 256" width="64px" height="64px"><path id="XMLID_108_" fill="#ffbb98" d="M61.14,161.094c2.175-0.197,4.361-0.301,6.548-0.301c7.82,0,15.663,1.261,23.206,3.806 c2.996,1.006,5.911,2.198,8.734,3.586l45.614,22.315l76.327-41.414c2.302-1.319,4.801-1.943,7.276-1.943 c5.067,0,9.995,2.638,12.702,7.346c4.026,6.999,1.048,14.407-5.402,19.967l-75.46,69.132 c-0.046,0.035-0.093,0.081-0.139,0.116c-7.369,5.622-17.202,6.848-25.878,3.575L73.68,224.246 c-6.767-2.279-13.859-2.776-20.638-1.643c-3.956,0.659-7.809,1.874-11.453,3.621v-60.56 C47.895,163.235,54.477,161.708,61.14,161.094z"/><path fill="#3bb2a0" d="M12.669,156.083v75.906c0,2.895,2.341,5.237,5.237,5.237H36.35c2.896,0,5.237-2.341,5.237-5.237 v-75.906c0-2.886-2.341-5.237-5.237-5.237H17.906C15.011,150.846,12.669,153.197,12.669,156.083z"/><path fill="#4bdbc3" d="M12.669,156.083v75.906c0,2.895,2.341,5.237,5.237,5.237h4.109c2.896,0,5.237-2.341,5.237-5.237 v-75.906c0-2.886-2.341-5.237-5.237-5.237h-4.109C15.011,150.846,12.669,153.197,12.669,156.083z"/><path id="XMLID_107_" fill="#ffcaa6" d="M61.14,161.094c2.175-0.197,4.361-0.301,6.548-0.301c7.82,0,15.663,1.261,23.206,3.806 c2.996,1.006,5.911,2.198,8.734,3.586l45.614,22.315l7.23,3.54c4.731,2.383,7.462,7.172,7.462,12.124 c0,2.059-0.463,4.153-1.458,6.108c-3.378,6.698-11.533,9.393-18.232,6.015l-56-27.393c0,0-16.225-7.281-36.13-5.884 l-6.524,0.524v-19.87C47.895,163.235,54.477,161.708,61.14,161.094z"/><g><path fill="#f9d335" d="M186.607,71.505c0-24.282-20.522-43.771-45.167-42.069c-20.406,1.409-37.1,17.673-38.99,38.04 c-0.998,10.755,2.048,20.77,7.791,28.706c9.579,13.238,15.201,11.71,15.201,28.05v1.852h37.987v-1.476 c0-16.092,4.808-14.776,14.566-27.572C183.398,89.951,186.607,81.104,186.607,71.505z"/><path fill="#87828e" d="M163.432,126.083v24.112c0,10.492-8.503,18.995-18.995,18.995s-18.995-8.503-18.995-18.995v-24.112H163.432 z"/><path fill="#796e84" d="M163.432,144.566v5.63c0,10.492-8.503,18.995-18.995,18.995s-18.995-8.503-18.995-18.995v-5.63H163.432z"/><path fill="#f9e27d" d="M124.584,96.18c9.58,13.242,15.202,11.712,15.202,28.053v1.855h-14.342v-1.855 c0-16.34-5.622-14.81-15.202-28.053c-5.746-7.936-8.787-17.946-7.792-28.703c1.893-20.365,18.587-36.629,38.99-38.044 c3.49-0.239,6.894-0.057,10.173,0.507c-18.472,3.174-33.063,18.577-34.822,37.537C115.797,78.234,118.837,88.244,124.584,96.18z"/><path fill="#a4a4a5" d="M151.613,167.786c-2.218,0.908-4.637,1.405-7.18,1.405c-10.489,0-18.989-8.5-18.989-18.998v-24.106h14.342 v24.106C139.786,158.158,144.672,164.966,151.613,167.786z"/><path fill="#87828e" d="M151.613,167.786c-2.218,0.908-4.637,1.405-7.18,1.405c-10.489,0-18.989-8.5-18.989-18.998v-5.632h14.342 v5.632C139.786,158.158,144.672,164.966,151.613,167.786z"/></g><g><path fill="#5f266d" d="M80.538,207.729l-1.038-0.422c-2.047-0.833-4.379,0.153-5.211,2.2s0.153,4.38,2.2,5.211l1.038,0.422 C82.465,217.149,85.397,209.703,80.538,207.729z"/><path fill="#5f266d" d="M103.7,217.134l-9.265-3.763c-2.047-0.833-4.38,0.154-5.211,2.201c-0.831,2.046,0.154,4.38,2.201,5.211 l9.265,3.763c2.043,0.83,4.379-0.152,5.211-2.201C106.732,220.299,105.747,217.965,103.7,217.134z"/><path fill="#5f266d" d="M244.991,152.512c-5.118-8.894-16.525-11.979-25.35-6.926l-74.513,40.427 c-6.264-3.065-37.693-18.44-43.744-21.401c-17.311-8.514-37.343-10.061-55.797-4.502v-4.007c0-5.093-4.144-9.237-9.237-9.237 H17.908c-5.093,0-9.237,4.144-9.237,9.237v75.892c0,5.094,4.144,9.238,9.237,9.238H36.35c5.093,0,9.237-4.144,9.237-9.238v-3.146 c8.574-3.453,17.974-3.763,26.741-0.822l60.916,22.998c9.907,3.744,21.311,2.276,29.682-4.109 c0.35-0.262,75.502-69.134,75.824-69.429C247.211,170.431,249.662,160.638,244.991,152.512z M37.587,231.996 c0,0.683-0.555,1.238-1.237,1.238H17.908c-0.682,0-1.237-0.555-1.237-1.238v-75.892c0-0.682,0.555-1.237,1.237-1.237H36.35 c0.682,0,1.237,0.555,1.237,1.237V231.996z M228.952,175.615c-45.216,41.427-69.078,63.284-70.977,65.016 c-6.12,4.594-14.496,5.71-21.904,2.911c-0.1-0.038-61.018-23.038-61.119-23.072c-9.6-3.24-19.826-3.248-29.365-0.13v-51.839 c17.152-5.837,36.048-4.687,52.274,3.293c22.721,11.115,37.873,18.527,52.796,25.831c4.729,2.382,6.616,8.169,4.231,12.856 c-2.379,4.716-8.147,6.621-12.901,4.223l-57.083-27.923c-1.987-0.972-4.381-0.149-5.351,1.835 c-0.971,1.985-0.149,4.38,1.835,5.351c62.604,30.623,59.448,29.78,64.92,29.78c18.4,0,24.5-24.93,7.906-33.288l-0.268-0.131 l69.589-37.757c5.084-2.913,11.598-1.149,14.52,3.928C242.599,164.402,234.471,170.557,228.952,175.615z"/><path fill="#5f266d" d="M141.164,25.445C105.742,27.891,85.602,68.956,107,98.527c15.569,21.517,14.441,3.451,14.441,51.672 c0,12.679,10.315,22.994,22.994,22.994c12.679,0,22.994-10.315,22.994-22.994c0-46.228-1.555-30.673,13.747-50.737 C205.11,68.074,180.853,22.716,141.164,25.445z M159.429,150.199c0,8.268-6.726,14.994-14.994,14.994s-14.994-6.726-14.994-14.994 v-1.633h29.988V150.199z M159.429,140.566h-29.988v-10.481h29.988V140.566z M159.472,122.084h-30.065 c-0.526-15.849-7.202-16.19-15.925-28.247c-17.684-24.438-1.054-58.389,28.234-60.411c32.649-2.256,53.027,35.053,33.099,61.184 C165.954,106.23,160.026,106.855,159.472,122.084z"/><path fill="#5f266d" d="M144.435,21.592c2.209,0,4-1.791,4-4V6.943c0-2.209-1.791-4-4-4s-4,1.791-4,4v10.649 C140.435,19.801,142.226,21.592,144.435,21.592z"/><path fill="#5f266d" d="M117.14,28.376c3.05,0,5.006-3.323,3.46-6l-5.324-9.222c-1.104-1.913-3.55-2.569-5.464-1.464 c-1.913,1.104-2.569,3.551-1.464,5.464C113.797,26.593,114.147,28.376,117.14,28.376z"/><path fill="#5f266d" d="M85.664,42.041l9.222,5.324c1.913,1.105,4.36,0.449,5.464-1.464c1.105-1.913,0.449-4.359-1.464-5.464 l-9.222-5.324c-1.914-1.105-4.36-0.45-5.464,1.464C83.096,38.49,83.751,40.937,85.664,42.041z"/><path fill="#5f266d" d="M78.464,74.935h10.648c2.209,0,4-1.791,4-4s-1.791-4-4-4H78.464c-2.209,0-4,1.791-4,4 S76.255,74.935,78.464,74.935z"/><path fill="#5f266d" d="M193.778,72.914c0,2.209,1.791,4,4,4h10.648c2.209,0,4-1.791,4-4s-1.791-4-4-4h-10.648 C195.569,68.914,193.778,70.705,193.778,72.914z"/><path fill="#5f266d" d="M192.994,49.079l9.222-5.324c1.913-1.104,2.569-3.551,1.464-5.464c-1.104-1.913-3.55-2.569-5.464-1.464 l-9.222,5.324c-1.913,1.104-2.569,3.551-1.464,5.464C188.635,49.529,191.083,50.182,192.994,49.079z"/><path fill="#5f266d" d="M169.469,28.83c1.915,1.104,4.36,0.448,5.464-1.464l5.324-9.222c1.104-1.913,0.449-4.359-1.464-5.464 c-1.914-1.104-4.359-0.449-5.464,1.464l-5.324,9.222C166.9,25.279,167.556,27.725,169.469,28.83z"/><path fill="#5f266d" d="M155.976,71.312h-17.671l11.064-16.942c1.208-1.85,0.688-4.328-1.162-5.536 c-1.849-1.208-4.328-0.687-5.536,1.162l-15.104,23.129c-1.731,2.652,0.171,6.187,3.349,6.187h18.149l-10.525,18.315 c-1.101,1.916-0.44,4.361,1.475,5.461c1.917,1.1,4.361,0.439,5.461-1.475l13.969-24.309 C160.976,74.64,159.045,71.312,155.976,71.312z"/></g></svg>